<?xml version="1.0" encoding="utf-8"?>
<!-- Generator: Adobe Illustrator 21.0.0, SVG Export Plug-In . SVG Version: 6.00 Build 0)  -->
<svg version="1.1" id="Layer_1" xmlns="http://www.w3.org/2000/svg" xmlns:xlink="http://www.w3.org/1999/xlink" x="0px" y="0px"
	 viewBox="0 0 1400 980" style="enable-background:new 0 0 1400 980;" xml:space="preserve">
<style type="text/css">
	.st0{fill:#CA3711;}
	.st1{fill:#538091;}
	.st2{fill:#0C0C0C;}
	.st3{fill:#FFFFFF;}
</style>
<g>
	<path class="st0" d="M457.6,212.3h-49.5h-47.5c-27.4,0-49.6,12.1-49.6,27.1v0v14h196.3v-14v0C507.2,224.4,485,212.3,457.6,212.3z"
		/>
	<rect x="305.3" y="272" class="st0" width="207.5" height="283"/>
	<path class="st1" d="M765.6,888.2H592.4c-8.4,0-15.1,6.8-15.1,15.1v21.9h203.5v-21.9C780.8,895,774,888.2,765.6,888.2z"/>
	<path class="st2" d="M568.2,180.3c-14,0-27-6.6-35.4-17.7c-0.2,0-0.3,0-0.5,0c-11.5,0-21.9-5.9-27.9-15.5c-1.2,0.1-2.5,0.2-3.7,0.2
		c-20,0-36.3-16.3-36.3-36.3c0-17.8,13.1-32.9,30.3-35.8c3.6-16,18-27.7,34.7-27.7c1.9,0,3.7,0.2,5.6,0.4
		c8.4-9.7,20.4-15.2,33.3-15.2c9.7,0,19.1,3.2,26.8,9.1c5.3-3,11.3-4.6,17.4-4.6c19.6,0,35.5,15.9,35.5,35.5c0,2-0.2,4.1-0.5,6.1
		c7,8,10.8,18.2,10.8,28.9c0,24.4-19.8,44.2-44.2,44.2c-1.5,0-3.1-0.1-4.6-0.2C603.1,168.7,586.6,180.3,568.2,180.3z M534.8,154.5
		c1.3,0,2.6,0.7,3.3,1.8c6.8,10,18,16,30.1,16c16,0,30.3-10.7,34.8-26.1c0.6-2,2.5-3.2,4.6-2.8c2.2,0.4,4.4,0.6,6.6,0.6
		c20,0,36.2-16.2,36.2-36.2c0-9.3-3.5-18.2-10-24.9c-0.9-1-1.3-2.4-1-3.7c0.5-2.1,0.8-4.3,0.8-6.4c0-15.2-12.3-27.5-27.5-27.5
		c-5.6,0-10.9,1.7-15.5,4.8c-1.5,1-3.5,0.9-4.9-0.3c-6.6-5.8-15.1-9-23.8-9c-11.2,0-21.7,5.1-28.6,14c-1,1.2-2.6,1.8-4.1,1.4
		c-2.1-0.5-4.2-0.7-6.3-0.7c-13.7,0-25.5,10.3-27.3,23.9c-0.2,1.9-1.8,3.3-3.7,3.5c-14.6,1.2-26,13.5-26,28.2
		c0,15.6,12.7,28.3,28.3,28.3c1.7,0,3.4-0.2,5.1-0.5c1.7-0.3,3.5,0.6,4.3,2.1c4.3,8.4,12.8,13.7,22.2,13.7c0.7,0,1.4,0,2.2-0.1
		C534.6,154.5,534.7,154.5,534.8,154.5z"/>
	<polygon class="st1" points="779.4,664.1 583.4,664.1 606.4,887.8 756.4,887.8 	"/>
	<polygon class="st3" points="603.1,855.5 606.4,887.8 756.4,887.8 759.7,855.5 	"/>
	<path class="st1" d="M1218.3,280.3h51.5c49.2-21.9,51.1-98,51.1-98h-153.7C1167.2,182.3,1169.1,258.4,1218.3,280.3z"/>
	<polygon class="st1" points="209.3,145.4 89.1,145.4 149.7,66.6 	"/>
	<path class="st1" d="M237.4,261.7H60.9c-8.1,0-14.6,6.6-14.6,14.6v12.9h205.8v-12.9C252.1,268.3,245.5,261.7,237.4,261.7z"/>
	<path class="st0" d="M146.9,164.9L146.9,164.9c-9.4,0-17.1,7.7-17.1,17.1v31.5H164V182C164,172.6,156.4,164.9,146.9,164.9z"/>
	<g>
		<path class="st0" d="M730.3,361.4H766c-2.5-3.3-6.1-10.3-8.1-23.6c10.9,3.1,17,7.9,17,7.9v-36c0,0-6.5,5.1-18,8.2
			c2.8-14.3,9.2-22.5,9.2-22.5h-36c0,0,6.4,8.3,9.2,22.5c-11.5-3.1-18-8.2-18-8.2v36c0,0,6.1-4.8,17-7.9
			C736.4,351.1,732.7,358,730.3,361.4z"/>
		<circle class="st1" cx="748.2" cy="383.6" r="25.6"/>
		<path class="st2" d="M748.2,413.2c-16.3,0-29.6-13.3-29.6-29.6s13.3-29.6,29.6-29.6c16.3,0,29.6,13.3,29.6,29.6
			S764.5,413.2,748.2,413.2z M748.2,361.9c-11.9,0-21.6,9.7-21.6,21.6c0,11.9,9.7,21.6,21.6,21.6s21.6-9.7,21.6-21.6
			C769.8,371.6,760.1,361.9,748.2,361.9z"/>
		<path class="st1" d="M895.3,499.7c-6.8,24-15.7,42.1-15.7,42.1l-263.1,3.9c0,0-9.7-19.2-17.3-44.3c34.2-34.1,88.1-56.2,148.9-56.2
			C807.9,445.2,861.1,466.5,895.3,499.7z"/>
		<path class="st3" d="M694.6,490.5c0,0-5.5,4.2-15.1,6.8c2.4-11.9,7.7-18.8,7.7-18.8h-30.1c0,0,5.3,6.9,7.7,18.8
			c-9.6-2.6-15.1-6.8-15.1-6.8v30.1c0,0,5.1-4,14.2-6.6c-2.6,17.8-8.9,28.1-8.9,28.1h34.1c0,0-6.3-10.3-8.9-28.1
			c9.1,2.6,14.2,6.6,14.2,6.6V490.5z"/>
		<path class="st3" d="M844.9,490.5c0,0-5.5,4.2-15.1,6.8c2.4-11.9,7.7-18.8,7.7-18.8h-30.1c0,0,5.3,6.9,7.7,18.8
			c-9.6-2.6-15.1-6.8-15.1-6.8v30.1c0,0,5.1-4,14.2-6.6c-2.6,17.8-8.9,28.1-8.9,28.1h34.1c0,0-6.3-10.3-8.9-28.1
			c9.1,2.6,14.2,6.6,14.2,6.6V490.5z"/>
		<rect x="744.1" y="409.2" class="st2" width="8" height="78.8"/>
		<circle class="st2" cx="600.9" cy="534.2" r="12.1"/>
		<circle class="st2" cx="588.5" cy="501.7" r="12.1"/>
		<circle class="st2" cx="581.6" cy="462.9" r="12.1"/>
		<circle class="st2" cx="582.2" cy="419.9" r="12.1"/>
		<circle class="st2" cx="604.4" cy="388.8" r="12.1"/>
		<circle class="st2" cx="651.5" cy="383.9" r="12.1"/>
		<circle class="st2" cx="695.2" cy="397.1" r="12.1"/>
		<circle class="st2" cx="892.6" cy="534.2" r="12.1"/>
		<circle class="st2" cx="905.1" cy="501.7" r="12.1"/>
		<circle class="st2" cx="912" cy="462.9" r="12.1"/>
		<circle class="st2" cx="911.3" cy="419.9" r="12.1"/>
		<circle class="st2" cx="889.1" cy="388.8" r="12.1"/>
		<circle class="st2" cx="842" cy="383.9" r="12.1"/>
		<circle class="st2" cx="798.4" cy="397.1" r="12.1"/>
		<path class="st2" d="M614.1,549.7l-1.1-2.2c-0.4-0.8-9.9-19.8-17.5-44.9c-20.6-68.4-2-97.8,17.3-110.4
			c16.2-10.7,39.8-2.3,67.2,7.5c21.5,7.7,45.9,16.3,69.8,16.5c0.3,0,0.5,0,0.8,0c22.8,0,46-8.7,66.6-16.3
			c25.5-9.5,47.4-17.7,62.7-7.7C899,404.8,918,434,899.1,500.8l0,0c-6.8,24-15.5,42-15.9,42.8l-1.1,2.2L614.1,549.7z M631.2,395.2
			c-5.4,0-10.1,1.1-14.1,3.6c-30.7,20.2-24.6,66.3-14,101.4c5.9,19.6,13.2,35.7,15.9,41.4l258-3.8c2.5-5.5,9.1-20.7,14.4-39.2l0,0
			c9.7-34.3,14.8-79.4-16.2-99.8c-11.9-7.8-32.1-0.3-55.5,8.5c-21.2,7.9-45.1,16.8-69.4,16.8c-0.3,0-0.6,0-0.8,0
			c-25.2-0.2-50.3-9.1-72.4-17C659.6,400.9,643.6,395.2,631.2,395.2z"/>
		<circle class="st0" cx="745.9" cy="569.3" r="13.9"/>
		<g>
			
				<rect x="648.8" y="558.3" transform="matrix(0.7071 -0.7071 0.7071 0.7071 -209.2805 633.3079)" class="st0" width="22" height="22"/>
			
				<rect x="825.5" y="558.3" transform="matrix(0.7071 -0.7071 0.7071 0.7071 -157.5429 758.2136)" class="st0" width="22" height="22"/>
		</g>
		<path class="st3" d="M775.9,477.5c0,0-6.8,5.2-18.6,8.4c2.9-14.8,9.5-23.3,9.5-23.3h-37.2c0,0,6.6,8.5,9.5,23.3
			c-11.9-3.2-18.6-8.4-18.6-8.4v37.2c0,0,6.4-4.9,17.6-8.2c-3.2,22-11,34.8-11,34.8h42.2c0,0-7.8-12.8-11-34.8
			c11.2,3.2,17.6,8.2,17.6,8.2V477.5z"/>
		<path class="st2" d="M884.4,598.2H611.9v-60h272.4V598.2z M620,590.1h256.4v-43.9H620V590.1z"/>
	</g>
	<path class="st2" d="M234.6,604.4H63.7V473.1h170.9V604.4z M71.7,596.4h154.9V481.1H71.7V596.4z"/>
	<path class="st2" d="M256.1,293.2H42.3v-16.9c0-10.3,8.4-18.6,18.6-18.6h176.5c10.3,0,18.6,8.4,18.6,18.6V293.2z M50.3,285.2H248
		v-8.9c0-5.9-4.8-10.6-10.6-10.6H60.9c-5.9,0-10.6,4.8-10.6,10.6V285.2z"/>
	<path class="st2" d="M236.6,265.8H61.7l25.6-55.1h123.8L236.6,265.8z M74.3,257.7h149.8L206,218.6H92.4L74.3,257.7z"/>
	<g>
		<g>
			<rect x="146.7" y="323.3" class="st2" width="5" height="21.2"/>
			<rect x="146.7" y="423.3" class="st2" width="5" height="21.2"/>
		</g>
		<g>
			<rect x="121.7" y="330" transform="matrix(0.866 -0.5 0.5 0.866 -153.644 107.7112)" class="st2" width="5" height="21.2"/>
			<rect x="171.7" y="416.6" transform="matrix(0.866 -0.5 0.5 0.866 -190.2457 144.3127)" class="st2" width="5" height="21.2"/>
		</g>
		<g>
			<rect x="103.4" y="348.3" transform="matrix(0.5 -0.866 0.866 0.5 -257.8479 271.1159)" class="st2" width="5" height="21.2"/>
			<rect x="190" y="398.3" transform="matrix(0.5 -0.866 0.866 0.5 -257.8476 371.1136)" class="st2" width="5" height="21.2"/>
		</g>
		<g>
			<rect x="88.6" y="381.4" class="st2" width="21.2" height="5"/>
			<rect x="188.6" y="381.4" class="st2" width="21.2" height="5"/>
		</g>
		<g>
			<rect x="95.3" y="406.4" transform="matrix(0.866 -0.5 0.5 0.866 -190.2473 107.7127)" class="st2" width="21.2" height="5"/>
			<rect x="181.9" y="356.4" transform="matrix(0.866 -0.5 0.5 0.866 -153.6453 144.3148)" class="st2" width="21.2" height="5"/>
		</g>
		<g>
			<rect x="113.6" y="424.7" transform="matrix(0.5 -0.866 0.866 0.5 -307.846 321.1125)" class="st2" width="21.2" height="5"/>
			<rect x="163.6" y="338.1" transform="matrix(0.5 -0.866 0.866 0.5 -207.8488 321.1124)" class="st2" width="21.2" height="5"/>
		</g>
		<path class="st2" d="M247.1,481.1H51.2V285.2h195.9V481.1z M59.2,473.1h179.9V293.2H59.2V473.1z"/>
		<path class="st1" d="M149.2,306c-42.7,0-77.4,34.7-77.4,77.4s34.7,77.4,77.4,77.4s77.4-34.7,77.4-77.4S191.9,306,149.2,306z
			 M149.2,439.5c-31,0-56.1-25.1-56.1-56.1s25.1-56.1,56.1-56.1s56.1,25.1,56.1,56.1S180.2,439.5,149.2,439.5z"/>
		<path class="st2" d="M149.2,464.3c-44.6,0-80.9-36.3-80.9-80.9c0-44.6,36.3-80.9,80.9-80.9c44.6,0,80.9,36.3,80.9,80.9
			C230.1,428,193.8,464.3,149.2,464.3z M149.2,309.5c-40.7,0-73.9,33.1-73.9,73.9c0,40.7,33.1,73.9,73.9,73.9
			c40.7,0,73.9-33.1,73.9-73.9C223.1,342.6,189.9,309.5,149.2,309.5z M149.2,443c-32.9,0-59.6-26.8-59.6-59.6
			c0-32.9,26.8-59.6,59.6-59.6c32.9,0,59.6,26.8,59.6,59.6C208.8,416.3,182.1,443,149.2,443z M149.2,330.8
			c-29,0-52.6,23.6-52.6,52.6c0,29,23.6,52.6,52.6,52.6c29,0,52.6-23.6,52.6-52.6C201.8,354.4,178.2,330.8,149.2,330.8z"/>
		<path class="st2" d="M149.2,424.8c-22.9,0-41.4-18.6-41.4-41.4c0-22.9,18.6-41.4,41.4-41.4s41.4,18.6,41.4,41.4
			C190.6,406.2,172,424.8,149.2,424.8z M149.2,346.9c-20.1,0-36.4,16.3-36.4,36.4c0,20.1,16.3,36.4,36.4,36.4
			c20.1,0,36.4-16.3,36.4-36.4C185.6,363.3,169.3,346.9,149.2,346.9z"/>
		<path class="st2" d="M149.2,377.9c-3.1,0-5.5,2.5-5.5,5.5c0,3.1,2.5,5.5,5.5,5.5c3.1,0,5.5-2.5,5.5-5.5
			C154.7,380.3,152.2,377.9,149.2,377.9z"/>
		
			<rect x="136.1" y="364.8" transform="matrix(0.5397 -0.8419 0.8419 0.5397 -252.6872 289.7346)" class="st2" width="5" height="22.3"/>
		
			<rect x="143.9" y="365" transform="matrix(0.7176 -0.6965 0.6965 0.7176 -208.8817 219.9106)" class="st2" width="45.6" height="5"/>
	</g>
	<path class="st2" d="M209.3,218.6H89.1c-2.2,0-4-1.8-4-4v-69.2c0-2.2,1.8-4,4-4h120.2c2.2,0,4,1.8,4,4v69.2
		C213.3,216.8,211.5,218.6,209.3,218.6z M93.1,210.6h112.2v-61.2H93.1V210.6z"/>
	<path class="st2" d="M209.3,149.4H89.1c-1.5,0-2.9-0.9-3.6-2.2s-0.5-3,0.4-4.2l60.6-78.8c0.8-1,1.9-1.6,3.2-1.6c0,0,0,0,0,0
		c1.3,0,2.4,0.6,3.2,1.6l59.6,78.8c0.9,1.2,1.1,2.8,0.4,4.2S210.8,149.4,209.3,149.4z M97.2,141.4h104l-51.6-68.2L97.2,141.4z"/>
	<rect x="85.6" y="496.5" class="st0" width="26.5" height="89.5"/>
	<rect x="135.3" y="496.5" class="st0" width="26.5" height="89.5"/>
	<rect x="182.9" y="496.5" class="st0" width="26.5" height="89.5"/>
	<path class="st2" d="M1269.8,284.3h-51.5c-0.6,0-1.1-0.1-1.6-0.3c-21.2-9.4-37.2-30.1-46.2-59.7c-6.7-22-7.3-41-7.3-41.8
		c0-1.1,0.4-2.1,1.1-2.9c0.8-0.8,1.8-1.2,2.9-1.2h153.7c1.1,0,2.1,0.4,2.9,1.2c0.8,0.8,1.2,1.8,1.1,2.9c0,0.8-0.6,19.8-7.3,41.8
		c-9,29.6-25,50.3-46.2,59.7C1270.9,284.1,1270.3,284.3,1269.8,284.3z M1219.1,276.2h49.8c39.3-18.1,46.5-74.3,47.7-90h-145.2
		C1172.7,202,1179.9,258.1,1219.1,276.2z"/>
	<g>
		<rect x="168.7" y="695.8" class="st1" width="33.2" height="226.8"/>
		<path class="st2" d="M201.8,926.6h-33.2c-2.2,0-4-1.8-4-4V695.8c0-2.2,1.8-4,4-4h33.2c2.2,0,4,1.8,4,4v226.8
			C205.8,924.8,204,926.6,201.8,926.6z M172.7,918.6h25.1V699.8h-25.1V918.6z"/>
		<path class="st2" d="M460.1,926.6H91.2c-2.2,0-4-1.8-4-4V695.8c0-2.2,1.8-4,4-4h368.9c2.2,0,4,1.8,4,4v226.8
			C464.1,924.8,462.3,926.6,460.1,926.6z M95.2,918.6h360.8V699.8H95.2V918.6z"/>
		<g>
			<path class="st0" d="M135.8,684.6H93.5c-7.7,0-14,6.3-14,14v49.8c0,7.7,6.3,14,14,14h0c31.1,0,56.4-25.2,56.4-56.4v-7.5
				C149.8,690.8,143.6,684.6,135.8,684.6z"/>
			<path class="st2" d="M93.5,766.4c-9.9,0-18-8.1-18-18v-49.8c0-9.9,8.1-18,18-18h42.4c9.9,0,18,8.1,18,18v7.5
				C153.8,739.3,126.8,766.4,93.5,766.4z M93.5,688.6c-5.5,0-10,4.5-10,10v49.8c0,5.5,4.5,10,10,10c28.9,0,52.4-23.5,52.4-52.4v-7.5
				c0-5.5-4.5-10-10-10H93.5z"/>
		</g>
		<g>
			<path class="st0" d="M412.2,685h42.4c7.7,0,14,6.3,14,14v49.8c0,7.7-6.3,14-14,14h0c-31.1,0-56.4-25.2-56.4-56.4V699
				C398.2,691.3,404.5,685,412.2,685z"/>
			<path class="st2" d="M454.6,766.9c-33.3,0-60.4-27.1-60.4-60.4V699c0-9.9,8.1-18,18-18h42.4c9.9,0,18,8.1,18,18v49.8
				C472.6,758.8,464.5,766.9,454.6,766.9z M412.2,689c-5.5,0-10,4.5-10,10v7.5c0,28.9,23.5,52.4,52.4,52.4c5.5,0,10-4.5,10-10V699
				c0-5.5-4.5-10-10-10H412.2z"/>
		</g>
		<g>
			<path class="st0" d="M412.2,936.6h42.4c7.7,0,14-6.3,14-14v-49.8c0-7.7-6.3-14-14-14h0c-31.1,0-56.4,25.2-56.4,56.4v7.5
				C398.2,930.4,404.5,936.6,412.2,936.6z"/>
			<path class="st2" d="M454.6,940.6h-42.4c-9.9,0-18-8.1-18-18v-7.5c0-33.3,27.1-60.4,60.4-60.4c9.9,0,18,8.1,18,18v49.8
				C472.6,932.6,464.5,940.6,454.6,940.6z M454.6,862.8c-28.9,0-52.4,23.5-52.4,52.4v7.5c0,5.5,4.5,10,10,10h42.4
				c5.5,0,10-4.5,10-10v-49.8C464.6,867.3,460.1,862.8,454.6,862.8z"/>
		</g>
		<g>
			<path class="st0" d="M135.8,936.2H93.5c-7.7,0-14-6.3-14-14v-49.8c0-7.7,6.3-14,14-14h0c31.1,0,56.4,25.2,56.4,56.4v7.5
				C149.8,929.9,143.6,936.2,135.8,936.2z"/>
			<path class="st2" d="M135.8,940.2H93.5c-9.9,0-18-8.1-18-18v-49.8c0-9.9,8.1-18,18-18c33.3,0,60.4,27.1,60.4,60.4v7.5
				C153.8,932.1,145.8,940.2,135.8,940.2z M93.5,862.3c-5.5,0-10,4.5-10,10v49.8c0,5.5,4.5,10,10,10h42.4c5.5,0,10-4.5,10-10v-7.5
				C145.8,885.8,122.3,862.3,93.5,862.3z"/>
		</g>
		<path class="st2" d="M329.7,699.8H218.4c-2.2,0-4-1.8-4-4v-22.7c0-14.9,11.7-27.1,26-27.1h67.3c14.3,0,26,12.2,26,27.1v22.7
			C333.7,698,331.9,699.8,329.7,699.8z M222.4,691.8h103.3v-18.7c0-10.5-8.1-19.1-18-19.1h-67.3c-9.9,0-18,8.6-18,19.1V691.8z"/>
		<path class="st2" d="M215.1,816.2h-59.7c-2.2,0-4-1.8-4-4v-50.6c0-2.2,1.8-4,4-4h59.7c2.2,0,4,1.8,4,4v50.6
			C219.1,814.4,217.3,816.2,215.1,816.2z M159.4,808.2h51.7v-42.6h-51.7V808.2z"/>
		<path class="st2" d="M185.3,815.2c-2.2,0-4-1.8-4-4v-24.8c0-2.2,1.8-4,4-4s4,1.8,4,4v24.8C189.3,813.4,187.5,815.2,185.3,815.2z"
			/>
		<rect x="346.2" y="695.8" class="st1" width="33.2" height="226.8"/>
		<path class="st2" d="M379.3,926.6h-33.2c-2.2,0-4-1.8-4-4V695.8c0-2.2,1.8-4,4-4h33.2c2.2,0,4,1.8,4,4v226.8
			C383.3,924.8,381.5,926.6,379.3,926.6z M350.2,918.6h25.1V699.8h-25.1V918.6z"/>
		<path class="st2" d="M392.6,816.2h-59.7c-2.2,0-4-1.8-4-4v-50.6c0-2.2,1.8-4,4-4h59.7c2.2,0,4,1.8,4,4v50.6
			C396.6,814.4,394.8,816.2,392.6,816.2z M336.9,808.2h51.7v-42.6h-51.7V808.2z"/>
		<path class="st2" d="M362.8,815.2c-2.2,0-4-1.8-4-4v-24.8c0-2.2,1.8-4,4-4c2.2,0,4,1.8,4,4v24.8
			C366.8,813.4,365,815.2,362.8,815.2z"/>
	</g>
	<path class="st2" d="M1303.5,314.9h-119c-7.7,0-13.9-6.2-13.9-13.9V292c0-2.2,1.8-4,4-4h138.9c2.2,0,4,1.8,4,4v8.9
		C1317.5,308.6,1311.2,314.9,1303.5,314.9z M1178.6,296v4.9c0,3.3,2.6,5.9,5.9,5.9h119c3.3,0,5.9-2.7,5.9-5.9V296H1178.6z"/>
	<path class="st2" d="M1296.3,267.6c-1.3,0-2.5,0-3.8-0.1c-2.2-0.1-3.9-2-3.8-4.2c0.1-2.2,2-3.9,4.2-3.8c28.3,1.2,42.1-12,45-42.9
		c0.5-5.3,0.2-12.2-3.7-15.5c-4.4-3.6-11.8-1.5-11.9-1.5c-2.1,0.6-4.4-0.5-5-2.7c-0.6-2.1,0.5-4.4,2.7-5c0.5-0.1,11.5-3.4,19.3,2.9
		c5.4,4.4,7.6,11.9,6.6,22.4C1342.7,251.1,1326.5,267.6,1296.3,267.6z"/>
	<path class="st2" d="M1208.6,173.7c-1,0-1.9-0.3-2.7-1c-3.5-3.2-8.6-11.8-2.3-21.1c1.8-2.7,2.4-5.2,1.8-7.5
		c-0.6-2.2-2.1-3.7-2.9-4.2c-2-1-2.7-3.5-1.6-5.4c1-2,3.5-2.7,5.4-1.7c2.4,1.3,5.7,4.5,6.9,9.3c0.8,3.2,0.9,8.1-2.9,13.9
		c-3.8,5.7,0.3,10,1.1,10.8c1.6,1.5,1.7,4,0.2,5.7C1210.7,173.2,1209.6,173.7,1208.6,173.7z"/>
	<path class="st2" d="M1243.1,173.7c-1,0-1.9-0.3-2.7-1c-3.5-3.2-8.6-11.8-2.3-21.1c1.8-2.7,2.4-5.2,1.8-7.5
		c-0.6-2.2-2.1-3.7-2.9-4.2c-2-1-2.7-3.5-1.6-5.4c1-2,3.5-2.7,5.4-1.7c2.4,1.3,5.7,4.5,6.9,9.3c0.8,3.2,0.9,8.1-2.9,13.9
		c-3.8,5.7,0.3,10,1.1,10.8c1.6,1.5,1.7,4,0.2,5.7C1245.2,173.2,1244.2,173.7,1243.1,173.7z"/>
	<path class="st2" d="M1275.2,173.7c-1,0-1.9-0.3-2.7-1.1c-3.5-3.2-8.6-11.8-2.3-21.1c1.8-2.7,2.4-5.2,1.8-7.5
		c-0.6-2.2-2.1-3.7-2.9-4.2c-2-1-2.7-3.5-1.7-5.4c1-2,3.5-2.7,5.4-1.7c2.4,1.3,5.7,4.5,6.9,9.3c0.8,3.2,0.9,8.1-2.9,13.9
		c-4,6,0.9,10.6,1.1,10.8c1.6,1.5,1.7,4,0.2,5.7C1277.4,173.2,1276.3,173.7,1275.2,173.7z"/>
	<g>
		<path class="st0" d="M1019.6,122.5h-97.4c-8.4,4-41.9,21.6-50.4,47.9l-23.1-33.7h-36.4c0,0,11.5,142,85.2,167.7h138.4
			c0,0,9.7-7.6,19.8-22.2c27.2-39.1,27.3-91.3,0.1-130.3C1047.2,139.5,1035.5,128.5,1019.6,122.5z"/>
		<path class="st2" d="M1035.9,308.3H897.5c-0.5,0-0.9-0.1-1.3-0.2c-31.8-11.1-56.3-43.4-72.7-96.1c-12.1-38.7-15.1-74.7-15.1-75.1
			c-0.1-1.1,0.3-2.2,1-3c0.8-0.8,1.8-1.3,2.9-1.3h36.4c1.3,0,2.6,0.7,3.3,1.7l18.9,27.6c11.8-23.5,40.4-38.7,49.6-43.1
			c0.5-0.3,1.1-0.4,1.7-0.4h97.4c0.5,0,1,0.1,1.4,0.3c14.9,5.7,27.8,16,38.1,30.8c28.1,40.2,28,94.5-0.1,134.9
			c-10.4,14.9-20.2,22.7-20.6,23.1C1037.7,308,1036.8,308.3,1035.9,308.3z M898.2,300.3h136.3c2.7-2.3,10.2-9.3,18-20.5
			c26.2-37.7,26.3-88.2,0.1-125.7c-9.2-13.2-20.5-22.5-33.7-27.7h-95.8c-8.2,4-39.7,20.9-47.6,45.1c-0.5,1.5-1.7,2.5-3.2,2.7
			c-1.5,0.2-3-0.4-3.9-1.7l-21.9-32h-29.8C819.4,164.3,835.5,277.7,898.2,300.3z"/>
		<path class="st2" d="M1020.2,126.7c-0.4,0-0.9-0.1-1.3-0.2h-96.3c-1,0.1-2-0.1-2.8-0.7c-1.2-0.9-1.8-2.3-1.6-3.8
			c2.5-18.4,25.3-32.3,53-32.3c27.9,0,50.7,14,53,32.5c0.2,1.4-0.4,2.8-1.5,3.7C1021.9,126.4,1021,126.7,1020.2,126.7z M927.4,118.4
			h87.5c-5.1-12-23-20.8-43.8-20.8C950.4,97.7,932.4,106.5,927.4,118.4z"/>
		<path class="st2" d="M983.5,87.4c0,2.6-0.8,5-2.1,7c-3.3-0.5-6.7-0.7-10.3-0.7c-3.5,0-7,0.2-10.3,0.7c-1.3-2-2.1-4.4-2.1-7
			c0-6.9,5.6-12.4,12.4-12.4S983.5,80.5,983.5,87.4z"/>
		<path class="st2" d="M1069.7,264.7c-1.5,0-3-0.9-3.7-2.4c-0.9-2,0-4.4,2-5.3c0.2-0.1,16.3-7.4,30.7-22
			c18.9-19.3,26.1-41.6,21.4-66.4c-2.6-13.4-8.5-22.6-17.6-27.2c-20.1-10.1-49.7,4-50,4.1c-2,1-4.4,0.1-5.4-1.9
			c-1-2-0.1-4.4,1.9-5.4c1.4-0.7,33.4-15.9,57.1-4.1c11.5,5.8,18.9,16.8,21.9,32.8c5.2,27.2-3,52.7-23.7,73.7
			c-15.5,15.7-32.2,23.2-32.9,23.5C1070.8,264.6,1070.3,264.7,1069.7,264.7z"/>
	</g>
	<g>
		<path class="st0" d="M929.7,748.7v83.9c0,0-17.3,8.1-36.1,15.4c-8.9,3.5-14.7,12-14.6,21.6c0.2,17.5,0.4,41.8-0.2,42.7
			c4.1-0.7,357.4-0.3,474.9-0.1V748.7H929.7z"/>
		<path class="st0" d="M1019.8,911.8c-47.7,0-88.7,0-114,0.1c2.1-29.6,26.9-53,57-53C992.9,858.9,1017.6,882.3,1019.8,911.8z"/>
		<path class="st0" d="M1281,912c-34.2,0-73.5-0.1-114-0.1c2.1-29.6,26.9-53,57-53C1254.2,858.9,1278.9,882.4,1281,912z"/>
		<path class="st3" d="M1019.8,911.8c-47.7,0-88.7,0-114,0.1c2.1-29.6,26.9-53,57-53C992.9,858.9,1017.6,882.3,1019.8,911.8z"/>
		<path class="st3" d="M1281,912c-34.2,0-73.5-0.1-114-0.1c2.1-29.6,26.9-53,57-53C1254.2,858.9,1278.9,882.4,1281,912z"/>
		<path class="st0" d="M1353.7,680.5c0-22.6-18.3-41-41-41H957.3c-29.7,0-53.7,63.4-53.7,93.1v16.1h26.1h424V680.5z"/>
		<rect x="948.8" y="771.1" class="st1" width="55.8" height="54.4"/>
		<rect x="1036.2" y="771.1" class="st1" width="55.8" height="54.4"/>
		<rect x="1124.1" y="771.1" class="st1" width="55.8" height="54.4"/>
		<rect x="948.8" y="771.1" class="st3" width="55.8" height="15.4"/>
		<rect x="1036.2" y="771.1" class="st3" width="55.8" height="15.4"/>
		<g>
			<rect x="1124.1" y="771.1" class="st3" width="55.8" height="15.4"/>
			<rect x="1124.1" y="771.1" class="st3" width="55.8" height="15.4"/>
		</g>
		<path class="st3" d="M904,724.9c-0.3,2.7-0.5,5.3-0.5,7.7v16.1h450.1v-23.8H904z"/>
		<path class="st2" d="M1353.7,752.7H903.6c-2.2,0-4-1.8-4-4v-16.1c0-16.1,6.5-40,16.2-59.4c12.1-24.3,26.8-37.6,41.6-37.6h355.4
			c24.8,0,45,20.2,45,45v68.1C1357.7,750.9,1355.9,752.7,1353.7,752.7z M907.6,744.7h442.1v-64.1c0-20.4-16.6-37-37-37H957.3
			c-26.2,0-49.7,60.5-49.7,89.1V744.7z"/>
		<path class="st2" d="M1353.7,752.7H903.6c-2.2,0-4-1.8-4-4v-16.1c0-2.5,0.2-5.2,0.5-8.1c0.2-2,1.9-3.6,4-3.6h449.7
			c2.2,0,4,1.8,4,4v23.8C1357.7,750.9,1355.9,752.7,1353.7,752.7z M907.6,744.7h442.1v-15.7h-442c-0.1,1.3-0.1,2.5-0.1,3.7V744.7z"
			/>
		<path class="st2" d="M878.9,916.2c-1.3,0-2.6-0.6-3.3-1.8c-0.7-1-0.9-2.2-0.6-3.3c0.1-1.2,0.4-7.6,0-41.6
			c-0.1-11.1,6.8-21.3,17.2-25.4c14.4-5.6,28.2-11.8,33.5-14.2v-81.3c0-2.2,1.8-4,4-4h424c2.2,0,4,1.8,4,4v163.5
			c0,1.1-0.4,2.1-1.2,2.8c-0.8,0.8-1.8,1.2-2.8,1.2c0,0,0,0,0,0c-131.5-0.2-465.2-0.6-474.4,0.1C879.2,916.2,879,916.2,878.9,916.2z
			 M879.5,916.2c-0.1,0-0.1,0-0.2,0C879.5,916.2,879.5,916.2,879.5,916.2z M875.4,910.1C875.4,910.1,875.4,910.1,875.4,910.1
			C875.4,910.1,875.4,910.1,875.4,910.1z M875.4,910.1C875.4,910.1,875.4,910.1,875.4,910.1C875.4,910.1,875.4,910.1,875.4,910.1z
			 M933.7,752.7v79.9c0,1.6-0.9,3-2.3,3.6c-0.2,0.1-17.6,8.2-36.3,15.5c-7.3,2.8-12.1,10-12.1,17.8c0.3,22.3,0.3,33.2,0.1,38.7
			c47.9-0.7,423.3-0.1,466.6,0V752.7H933.7z M929.7,832.5L929.7,832.5L929.7,832.5z"/>
		<g>
			<circle class="st3" cx="962.8" cy="916.1" r="37.9"/>
			<path class="st2" d="M962.8,958c-23.1,0-41.9-18.8-41.9-41.9c0-23.1,18.8-41.9,41.9-41.9s41.9,18.8,41.9,41.9
				C1004.8,939.2,985.9,958,962.8,958z M962.8,882.1c-18.7,0-33.9,15.2-33.9,33.9s15.2,33.9,33.9,33.9s33.9-15.2,33.9-33.9
				S981.5,882.1,962.8,882.1z"/>
		</g>
		<circle class="st0" cx="962.8" cy="916.1" r="22.3"/>
		<g>
			<circle class="st3" cx="1224" cy="916.1" r="37.9"/>
			<path class="st2" d="M1224,958c-23.1,0-41.9-18.8-41.9-41.9c0-23.1,18.8-41.9,41.9-41.9c23.1,0,41.9,18.8,41.9,41.9
				C1266,939.2,1247.1,958,1224,958z M1224,882.1c-18.7,0-33.9,15.2-33.9,33.9s15.2,33.9,33.9,33.9c18.7,0,33.9-15.2,33.9-33.9
				S1242.7,882.1,1224,882.1z"/>
		</g>
		<circle class="st0" cx="1224" cy="916.1" r="22.3"/>
		<path class="st2" d="M1007.2,828h-60.8v-59.4h60.8V828z M951.3,823h50.8v-49.4h-50.8V823z"/>
		<path class="st2" d="M1094.6,828h-60.8v-59.4h60.8V828z M1038.7,823h50.8v-49.4h-50.8V823z"/>
		<path class="st2" d="M1182.5,828h-60.8v-59.4h60.8V828z M1126.6,823h50.8v-49.4h-50.8V823z"/>
		<rect x="1125.3" y="783.9" class="st2" width="55.9" height="5"/>
		<rect x="1209.3" y="771.1" class="st1" width="55.8" height="54.4"/>
		<g>
			<rect x="1209.3" y="771.1" class="st3" width="55.8" height="15.4"/>
			<rect x="1209.3" y="771.1" class="st3" width="55.8" height="15.4"/>
		</g>
		<path class="st2" d="M1267.7,828h-60.8v-59.4h60.8V828z M1211.9,823h50.8v-49.4h-50.8V823z"/>
		<rect x="1210.5" y="783.9" class="st2" width="55.9" height="5"/>
		<rect x="1036.3" y="783.9" class="st2" width="55.9" height="5"/>
		<rect x="949.5" y="783.9" class="st2" width="55.1" height="5"/>
		<rect x="976.7" y="657.8" class="st1" width="55.8" height="54.4"/>
		<rect x="1064.1" y="657.8" class="st1" width="55.8" height="54.4"/>
		<rect x="1152" y="657.8" class="st1" width="55.8" height="54.4"/>
		<rect x="976.7" y="657.8" class="st3" width="55.8" height="15.4"/>
		<rect x="1064.1" y="657.8" class="st3" width="55.8" height="15.4"/>
		<g>
			<rect x="1152" y="657.8" class="st3" width="55.8" height="15.4"/>
			<rect x="1152" y="657.8" class="st3" width="55.8" height="15.4"/>
		</g>
		<path class="st2" d="M1035,714.7h-60.8v-59.4h60.8V714.7z M979.2,709.7h50.8v-49.4h-50.8V709.7z"/>
		<path class="st2" d="M1122.4,714.7h-60.8v-59.4h60.8V714.7z M1066.6,709.7h50.8v-49.4h-50.8V709.7z"/>
		<path class="st2" d="M1210.3,714.7h-60.8v-59.4h60.8V714.7z M1154.5,709.7h50.8v-49.4h-50.8V709.7z"/>
		<rect x="1153.2" y="670.6" class="st2" width="55.9" height="5"/>
		<rect x="1237.2" y="657.8" class="st1" width="55.8" height="54.4"/>
		<g>
			<rect x="1237.2" y="657.8" class="st3" width="55.8" height="15.4"/>
			<rect x="1237.2" y="657.8" class="st3" width="55.8" height="15.4"/>
		</g>
		<path class="st2" d="M1295.5,714.7h-60.8v-59.4h60.8V714.7z M1239.7,709.7h50.8v-49.4h-50.8V709.7z"/>
		<rect x="1238.4" y="670.6" class="st2" width="55.9" height="5"/>
		<rect x="1064.1" y="670.6" class="st2" width="55.9" height="5"/>
		<rect x="977.4" y="670.6" class="st2" width="55.1" height="5"/>
	</g>
	<path class="st2" d="M760,891.8H602.8L579,660.1h204.9L760,891.8z M610,883.8h142.8l22.1-215.7H587.8L610,883.8z"/>
	<path class="st1" d="M755.9,83.1c0.8-3,1.3-6.2,1.3-9.5c0-19.4-15.8-35.2-35.2-35.2c-5.8,0-11.3,1.4-16.1,3.9
		C695.7,32.2,681.7,26,666.2,26c-21.1,0-39.4,11.5-49.2,28.5c-1.2-0.1-2.4-0.2-3.6-0.2c-22.7,0-41.1,18.4-41.1,41.1
		c0,1.4,0.1,2.8,0.2,4.2c-9.5,6-15.9,16.5-15.9,28.6c0,18.6,15.1,33.7,33.7,33.7c2.9,0,5.6-0.4,8.3-1c6.2,16,21.8,27.4,40.1,27.4
		c18.2,0,33.7-11.3,40-27.2c9.4,7.5,21.3,12,34.3,12c30.5,0,55.2-24.7,55.2-55.2C768.3,104.7,763.7,92.6,755.9,83.1z"/>
	<path class="st2" d="M638.8,192.3c-18.4,0-34.7-10.4-42.5-26.9c-2,0.3-3.9,0.5-5.9,0.5c-20.8,0-37.7-16.9-37.7-37.7
		c0-12.3,5.8-23.5,15.7-30.6c0-0.7-0.1-1.4-0.1-2.1c0-24.9,20.2-45.1,45.1-45.1c0.5,0,0.9,0,1.4,0C625.9,32.8,645.4,22,666.2,22
		c15.1,0,29.4,5.5,40.5,15.5c4.8-2.1,10-3.1,15.3-3.1c21.6,0,39.2,17.6,39.2,39.2c0,2.9-0.3,5.8-0.9,8.6c7.8,10.2,12,22.9,12,35.8
		c0,32.6-26.6,59.2-59.2,59.2c-11.8,0-23-3.4-32.7-9.9C672.4,182.6,656.5,192.3,638.8,192.3z M598.8,156.9c1.6,0,3.1,1,3.7,2.6
		c5.9,15.1,20.2,24.9,36.4,24.9c16.1,0,30.3-9.7,36.3-24.7c0.5-1.2,1.5-2.1,2.7-2.4c1.2-0.3,2.5-0.1,3.5,0.7
		c9.1,7.3,20.1,11.1,31.8,11.1c28.2,0,51.2-23,51.2-51.2c0-11.7-4.1-23.2-11.5-32.3c-0.8-1-1.1-2.4-0.8-3.6c0.8-2.8,1.2-5.6,1.2-8.4
		c0-17.2-14-31.2-31.2-31.2c-5,0-9.8,1.2-14.3,3.4c-1.5,0.8-3.4,0.5-4.6-0.7c-9.9-9.8-23-15.1-36.9-15.1
		c-18.8,0-36.4,10.2-45.7,26.5c-0.8,1.4-2.3,2.1-3.8,2c-1.2-0.1-2.2-0.1-3.2-0.1c-20.4,0-37.1,16.6-37.1,37.1c0,1.2,0.1,2.5,0.2,3.8
		c0.2,1.5-0.6,3-1.9,3.8c-8.7,5.5-14,14.9-14,25.2c0,16.4,13.3,29.7,29.7,29.7c2.5,0,4.9-0.3,7.3-0.9
		C598.1,156.9,598.4,156.9,598.8,156.9z"/>
	<path class="st2" d="M784.8,929.3H573.3v-26c0-10.6,8.6-19.1,19.1-19.1h173.2c10.6,0,19.1,8.6,19.1,19.1V929.3z M581.3,921.3h195.5
		v-17.9c0-6.1-5-11.1-11.1-11.1H592.4c-6.1,0-11.1,5-11.1,11.1V921.3z"/>
	<path class="st2" d="M516.9,599.6H301.3V268h215.5V599.6z M309.3,591.6h199.5V276H309.3V591.6z"/>
	<path class="st2" d="M501.8,276H316.4v-26.7h185.4V276z M324.4,268h169.4v-10.7H324.4V268z"/>
	<path class="st2" d="M511.2,257.3H306.9v-18c0-17.4,23.6-31.1,53.6-31.1h97c30.1,0,53.6,13.7,53.6,31.1V257.3z M315,249.3h188.3
		v-10c0-11.1-18.3-23.1-45.6-23.1h-97c-27.3,0-45.6,11.9-45.6,23.1V249.3z"/>
	<path class="st1" d="M635.7,230.6c2.1,6.3-2.8,13.6-10.8,16.3c-8.1,2.7-16.3-0.3-18.4-6.6c-2.1-6.3,4.9-34.3,4.9-34.3
		S633.6,224.3,635.7,230.6z"/>
	<path class="st1" d="M704.5,230.6c2.1,6.3-2.8,13.6-10.8,16.3c-8.1,2.7-16.3-0.3-18.4-6.6c-2.1-6.3,4.9-34.3,4.9-34.3
		S702.4,224.3,704.5,230.6z"/>
	<path class="st1" d="M767.2,230.6c2.1,6.3-2.8,13.6-10.8,16.3c-8.1,2.7-16.3-0.3-18.4-6.6c-2.1-6.3,4.9-34.3,4.9-34.3
		S765.1,224.3,767.2,230.6z"/>
	<rect x="307.2" y="551.2" class="st2" width="204.4" height="8"/>
	<g>
		<rect x="343.8" y="322.5" class="st3" width="36.9" height="36.9"/>
		<rect x="391.9" y="322.5" class="st3" width="36.9" height="36.9"/>
		<rect x="440" y="322.5" class="st3" width="36.9" height="36.9"/>
	</g>
	<g>
		<rect x="343.8" y="369.7" class="st3" width="36.9" height="36.9"/>
		<rect x="391.9" y="369.7" class="st3" width="36.9" height="36.9"/>
		<rect x="440" y="369.7" class="st3" width="36.9" height="36.9"/>
	</g>
	<g>
		<rect x="343.8" y="417.8" class="st3" width="36.9" height="36.9"/>
		<rect x="391.9" y="417.8" class="st3" width="36.9" height="36.9"/>
		<rect x="440" y="417.8" class="st3" width="36.9" height="36.9"/>
	</g>
	<g>
		<rect x="343.8" y="465.1" class="st3" width="36.9" height="36.9"/>
		<rect x="391.9" y="465.1" class="st3" width="36.9" height="36.9"/>
		<rect x="440" y="465.1" class="st3" width="36.9" height="36.9"/>
	</g>
	<g id="XMLID_4_">
		<rect id="XMLID_6_" x="996.3" y="364.4" class="st1" width="331.6" height="222.9"/>
		<polygon id="XMLID_23_" class="st3" points="1265.6,364.4 1190.2,418.4 1190.2,364.4 1133.9,364.4 1133.9,422.8 1052.4,364.4 
			996.3,364.4 996.3,390 1079.4,449.6 996.3,449.6 996.3,502 1073.6,502 996.3,557.5 996.3,587.3 1046.6,587.3 1133.9,524.7 
			1133.9,587.3 1190.2,587.3 1190.2,529.1 1271.4,587.3 1327.8,587.3 1327.8,561.9 1244.3,502 1327.8,502 1327.8,449.6 
			1238.6,449.6 1327.8,385.6 1327.8,364.4 		"/>
		<polygon id="XMLID_31_" class="st0" points="1327.8,490.9 1327.8,460.7 1178.3,460.7 1178.3,364.4 1145.8,364.4 1145.8,460.7 
			996.3,460.7 996.3,490.9 1145.8,490.9 1145.8,587.3 1178.3,587.3 1178.3,490.9 		"/>
		<polygon id="XMLID_5_" class="st0" points="1133.9,449.6 1133.9,436.8 1032.8,364.4 996.3,364.4 996.3,376 1099,449.6 		"/>
		<polygon id="XMLID_3_" class="st0" points="1327.8,575.9 1224.8,502 1190.2,502 1190.2,515 1290.9,587.3 1327.8,587.3 		"/>
		<polygon id="XMLID_2_" class="st0" points="1190.2,449.6 1219,449.6 1327.8,371.5 1327.8,364.4 1285.2,364.4 1190.2,432.4 		"/>
		<polygon id="XMLID_1_" class="st0" points="1133.9,502 1093.2,502 996.3,571.5 996.3,587.3 1027,587.3 1133.9,510.6 		"/>
	</g>
	<path class="st2" d="M1327.8,591.3H996.3c-2.2,0-4-1.8-4-4V364.4c0-2.2,1.8-4,4-4h331.6c2.2,0,4,1.8,4,4v222.9
		C1331.8,589.5,1330.1,591.3,1327.8,591.3z M1000.3,583.3h323.6V368.4h-323.6V583.3z"/>
</g>
</svg>
